# xmcd
#
# Track frame offsets:
#	150
#	27435
#	72623
#	158427
#	209457
#	268005
#	294916
#	336860
#
# Disc length: 4800 seconds
#
# Revision: 0
# Processed by: cddbd v1.5.2PL0 Copyright (c) Steve Scherf et al.
# Submitted via: audiograbber 1.83.01
#
DISCID=7612be08
DTITLE=Grateful Dead - 92-03-21 Copps Coliseum, Hamilton, Ontario, Canada
DYEAR=1900
DGENRE=
TTITLE0=Long Way To Go Home
TTITLE1=Corrina
TTITLE2=Terrapin Station
TTITLE3=Drums
TTITLE4=Space
TTITLE5=The Last Time
TTITLE6=Black Peter
TTITLE7=One More Saturday Night
EXTD=
EXTT0=
EXTT1=
EXTT2=
EXTT3=
EXTT4=
EXTT5=
EXTT6=
EXTT7=
PLAYORDER=
